<svg
  width="120"
  height="100"
  viewBox="0 0 120 100"
  fill="none"
  xmlns="http://www.w3.org/2000/svg"
>
  <g id="Frame 1" clip-path="url(#clip0_1_5)">
    <g id="LightGroup">
      <path
        id="light"
        d="M41 46.268C42.3333 47.0378 42.3333 48.9623 41 49.7321L6.5 69.6506C5.16666 70.4204 3.5 69.4582 3.5 67.9186L3.5 28.0814C3.5 26.5418 5.16667 25.5796 6.5 26.3494L41 46.268Z"
        fill="#0B8FEE"
        fill-opacity="0.65"
      />
    </g>
    <g id="DarkGroup">
      <path
        id="dark1"
        d="M53 46.268C54.3333 47.0378 54.3333 48.9623 53 49.7321L18.5 69.6506C17.1667 70.4204 15.5 69.4582 15.5 67.9186L15.5 28.0814C15.5 26.5418 17.1667 25.5796 18.5 26.3494L53 46.268Z"
        fill="#1731F4"
        fill-opacity="0.65"
      />
      <path
        id="dark2"
        d="M41 46.268C42.3333 47.0378 42.3333 48.9623 41 49.7321L6.5 69.6507C5.16666 70.4205 3.5 69.4582 3.5 67.9186L3.5 28.0814C3.5 26.5418 5.16667 25.5796 6.5 26.3494L41 46.268Z"
        fill="#1731F4"
        fill-opacity="0.65"
      />
    </g>
  </g>
  <defs>
    <clipPath id="clip0_1_5">
      <rect width="120" height="100" fill="white" />
    </clipPath>
  </defs>
</svg>
